<?xml version="1.0" encoding="UTF-8" standalone="no"?>
<!-- Created with Inkscape (http://www.inkscape.org/) -->

<svg
   version="1.1"
   id="svg1"
   width="628.74579"
   height="208.40105"
   viewBox="0 0 628.74579 208.40105"
   sodipodi:docname="logo.png"
   inkscape:export-filename="logo2.svg"
   inkscape:export-xdpi="96"
   inkscape:export-ydpi="96"
   xmlns:inkscape="http://www.inkscape.org/namespaces/inkscape"
   xmlns:sodipodi="http://sodipodi.sourceforge.net/DTD/sodipodi-0.dtd"
   xmlns="http://www.w3.org/2000/svg"
   xmlns:svg="http://www.w3.org/2000/svg">
  <defs
     id="defs1" />
  <sodipodi:namedview
     id="namedview1"
     pagecolor="#ffffff"
     bordercolor="#000000"
     borderopacity="0.25"
     inkscape:showpageshadow="2"
     inkscape:pageopacity="0.0"
     inkscape:pagecheckerboard="0"
     inkscape:deskcolor="#d1d1d1"
     inkscape:export-bgcolor="#ffffff00" />
  <g
     inkscape:groupmode="layer"
     inkscape:label="Image"
     id="g1"
     transform="translate(-29.754227,-26.407578)">
    <path
       style="display:inline;fill:#0a0b0d;stroke:#000000;stroke-width:1;stroke-dasharray:none;stroke-opacity:1"
       d="m 354.66668,209.59513 c 0,-4.48737 -6.87846,-16.23528 -12.14553,-20.7437 -6.45285,-5.5234 -5.88969,-7.59279 2.92928,-10.76405 13.87599,-4.98973 27.17668,-17.86939 29.90349,-28.95688 0.77527,-3.1523 0.41256,-3.63658 -3.34116,-4.46103 -2.31595,-0.50867 -6.24137,-2.70769 -8.72314,-4.88672 -4.51232,-3.96186 -4.51232,-3.96186 -6.38633,0.52328 -4.58964,10.98455 -18.14322,16.57249 -36.48986,15.04422 -7.88415,-0.65674 -12.45045,-0.43948 -15.26492,0.72631 -4.48623,1.85826 -3.54217,3.13083 8.51817,11.48216 6.61557,4.58104 6.34404,5.73567 -2.42653,10.31854 -9.44672,4.93618 -20.42505,14.77519 -22.78303,20.41862 -1.00443,2.40394 -2.15762,4.37079 -2.56266,4.37079 -1.9735,0 -5.89445,-2.95489 -5.89445,-4.44216 0,-2.5786 13.37253,-17.77782 19,-21.5954 2.75,-1.86555 5,-3.97874 5,-4.69597 0,-2.26184 -8.43693,-9.3058 -14.3093,-11.94678 -18.79129,-8.45099 -25.91341,-31.95579 -12.94424,-42.71925 1.24059,-1.0296 4.2943,-6.16702 6.78601,-11.4165 9.46715,-19.945101 26.53637,-30.388274 49.80086,-30.46881 17.18163,-0.05948 19.58962,0.58273 27.34155,7.291981 4.77623,4.133795 7.25521,5.327337 11.07288,5.331205 12.4357,0.0126 20.35596,12.015634 21.34512,32.348204 0.52199,10.7298 0.29676,12.09721 -2.75131,16.70315 -1.82591,2.75914 -5.44605,9.61853 -8.04475,15.24307 -5.56357,12.04161 -14.31762,21.9528 -24.43112,27.66051 -8.35256,4.71389 -8.49656,5.22988 -3.28888,11.78493 4.03772,5.08239 9.67866,18.2219 8.38028,19.52028 -1.92794,1.92794 -8.29043,0.6463 -8.29043,-1.67 z m -54.63853,-61.64772 c 3.88846,-7.26564 -1.70272,-29.28074 -7.43644,-29.28074 -12.66098,0 -17.91379,14.40725 -9.95054,27.29206 4.59477,7.4345 13.9027,8.49912 17.38698,1.98868 z m 43.5765,-2.41238 c 2.90304,-1.48102 6.91014,-4.83227 8.90466,-7.44723 4.1656,-5.46138 6.28545,-5.77423 14.3451,-2.11708 7.88159,3.57636 11.32043,3.35908 15.36319,-0.97072 5.97235,-6.39637 2.50808,-31.01506 -5.17112,-36.748412 -3.72976,-2.784666 -9.04647,-2.096106 -9.04647,1.171598 0,2.405324 -1.88232,2.461794 -3.83006,0.114909 -1.38969,-1.674469 -44.24126,11.505025 -53.47536,16.446965 -8.02189,4.29319 -1.07588,26.55995 9.83376,31.52399 5.39055,2.45278 16.21391,1.52692 23.0763,-1.97402 z m -14.72847,-10.94178 c -4.25151,-3.34424 -4.60786,-8.19489 -0.87617,-11.92658 6.91914,-6.91914 17.7339,3.22559 11.66667,10.94386 -2.85804,3.63578 -6.94455,4.00795 -10.7905,0.98272 z m 33.7905,-9.25991 c -6.93352,-6.93352 1.38059,-18.12375 9.1665,-12.3375 4.4987,3.3433 5.18369,8.65397 1.58093,12.25673 -3.47114,3.47114 -7.32807,3.50013 -10.74743,0.0808 z m -44.94079,-23.90831 c 13.00342,-4.349573 26.93467,-8.645051 30.95835,-9.54551 8.79995,-1.969344 8.92379,-2.467501 1.6491,-6.633997 -8.51167,-4.874968 -25.2654,-4.601675 -36.01501,0.58749 -12.73648,6.148291 -28.93888,23.500327 -21.94334,23.500327 0.93958,0 12.34748,-3.55874 25.3509,-7.90831 z M 31.294382,202.60364 C 29.40806,199.55151 30.308213,98.389323 32.233404,97.073178 c 2.932475,-2.004769 51.558638,-0.472815 57.889273,1.823785 14.775433,5.360167 21.247303,15.520957 20.861573,32.752517 -0.55712,24.88866 -16.352452,37.68386 -46.519747,37.68386 H 50.74634 l -0.373169,17 -0.37317,17 -8.885276,0.39164 c -5.589135,0.24635 -9.232155,-0.16963 -9.820343,-1.12134 z m 50.796431,-53.88898 c 9.73629,-4.06809 11.8504,-22.74526 3.42655,-30.27197 -4.120061,-3.68128 -4.6103,-3.77602 -19.538396,-3.77602 H 50.666668 v 18 18 h 13.376159 c 8.727476,0 14.999782,-0.67839 18.047986,-1.95201 z m 46.739657,53.2314 C 127.16734,197.61203 127.89232,99.307684 129.6,97.600002 c 1.1136,-1.113591 8.10572,-1.592962 23,-1.576849 35.32797,0.03822 47.2244,4.154007 53.88797,18.643517 7.39649,16.0832 2.82324,35.63212 -10.35145,44.24861 -8.54943,5.59147 -8.72495,4.44444 3.86349,25.24923 5.86666,9.69579 10.66666,18.12524 10.66666,18.7321 0,0.60687 -4.75302,1.10339 -10.56226,1.10339 h -10.56226 l -8.67749,-15 c -4.77262,-8.25 -9.41592,-16.65 -10.31843,-18.66666 -1.57352,-3.51604 -2.04141,-3.66667 -11.38929,-3.66667 h -9.74835 L 149.03763,185 l -0.37096,18.33334 -9.50287,0.38844 c -7.77372,0.31776 -9.65398,-0.005 -10.33333,-1.77572 z m 52.19603,-56.70555 c 10.47777,-3.65257 10.80492,-23.14507 0.47809,-28.48528 -2.9174,-1.50865 -7.94447,-2.08856 -18.10504,-2.08856 h -14.06621 v 16 16 h 13.80103 c 7.59057,0 15.64203,-0.64177 17.89213,-1.42616 z m 262.48422,57.71316 c -0.35567,-0.57549 1.85892,-5.03781 4.92131,-9.91629 8.8126,-14.0387 25.52697,-41.38072 25.98253,-42.5032 0.228,-0.56179 -3.2822,-7.14133 -7.80045,-14.6212 -7.87536,-13.03752 -21.28076,-37.080066 -21.28076,-38.166976 0,-0.286283 4.92083,-0.34625 10.93518,-0.133259 L 467.20371,98.000002 476.96127,114 c 5.36666,8.8 10.49583,16.15088 11.39815,16.33529 0.90233,0.18441 4.94059,-5.77378 8.97393,-13.24044 10.85573,-20.09652 10.49377,-19.761515 21.35142,-19.761515 11.85179,0 12.10864,0.782744 4.27877,13.039455 -11.58544,18.13562 -22.96353,37.31396 -22.96353,38.70619 0,1.39895 13.59114,24.33308 24.45608,41.268 3.41582,5.32416 6.21059,10.19916 6.21059,10.83333 0,2.40144 -17.57711,3.91883 -20.84246,1.79928 C 508.9942,202.44082 505.06452,196.6 501.0916,190 c -10.62076,-17.6437 -13.59984,-21.96511 -15.1549,-21.98349 -0.76816,-0.009 -5.7646,7.182 -11.10321,15.98018 -5.3386,8.79817 -10.99361,16.89817 -12.56669,18 -3.00779,2.10673 -17.58579,2.85054 -18.75608,0.95698 z m 106.94145,0.15012 C 547.28003,202.26312 546.42587,186.50518 546.92321,138 l 0.41014,-39.999998 8.44975,-0.399978 c 13.11086,-0.620618 12.21692,-4.518006 12.21692,53.262906 0,50.53641 0,50.53641 -3.42014,51.83674 -3.43855,1.30734 -10.01022,1.49532 -14.12771,0.40412 z m 40.83214,-0.75078 c -0.35746,-0.93155 -0.49267,-24.79206 -0.30045,-53.02337 l 0.34949,-51.329638 31.90605,-0.35803 c 35.64757,-0.400015 34.04057,-0.839151 34.07354,9.311118 0.028,8.62589 -1.18468,9.04691 -26.0586,9.04691 -20.92099,0 -20.92099,0 -20.08766,4.16667 0.45834,2.29167 0.83334,7.69167 0.83334,12 V 140 h 19.89406 c 22.28185,0 22.95237,0.43143 20.76771,13.3623 -0.89616,5.30437 -0.89616,5.30437 -20.77897,5.30437 h -19.8828 v 13.02799 13.028 l 18.33333,-0.49494 c 26.43225,-0.71358 27.66667,-0.24403 27.66667,10.52371 v 8.58191 l -33.03288,0.3567 c -25.7408,0.27795 -33.17636,-0.0172 -33.68283,-1.33703 z"
       id="path18" />
    <path
       id="path19"
       style="display:inline;fill:#656cf9;stroke:#000000;stroke-width:2.7;stroke-dasharray:none;stroke-opacity:1"
       d="M 308.00001,231.99819 C 268.01669,222.10069 239.8053,194.78605 229.50677,156 c -12.27181,-46.21775 8.82527,-92.685306 53.15991,-117.087799 25.66119,-14.124334 64.12883,-14.877471 91.33333,-1.788166 57.6597,27.742663 79.26343,96.646055 46.68874,148.910015 -23.09073,37.04755 -70.53425,56.39909 -112.68874,45.96414 z m 66.54804,-25.00699 c 44.55368,-22.5063 56.28601,-90.63355 22.50634,-130.689652 -42.62131,-50.540565 -125.61164,-36.79899 -147.14976,24.365122 -12.69384,36.04806 2.06833,84.5688 30.18901,99.22612 6.68338,3.48357 6.20235,3.57541 8.36348,-1.59691 2.35798,-5.64343 13.33631,-15.48244 22.78303,-20.41862 8.77057,-4.58287 9.0421,-5.7375 2.42653,-10.31854 -12.06034,-8.35133 -13.0044,-9.6239 -8.51817,-11.48216 2.81447,-1.16579 7.38077,-1.38305 15.26492,-0.72631 18.34664,1.52827 31.90022,-4.05967 36.48986,-15.04422 1.87401,-4.48514 1.87401,-4.48514 6.38633,-0.52328 2.48177,2.17903 6.40719,4.37805 8.72314,4.88672 11.5088,2.52776 -7.6342,26.61145 -26.56233,33.41791 -8.81897,3.17126 -9.38213,5.24065 -2.92928,10.76405 5.35931,4.58737 12.14553,16.27901 12.14553,20.92493 0,3.59514 10.03333,2.18958 19.88137,-2.78516 z m -86.23843,-55.39732 c -10.885,-4.881 -12.44428,-27.74068 -2.15895,-31.65116 8.4757,-3.22245 10.35685,-1.66665 13.77261,11.39062 3.83094,14.64438 -1.88816,24.6216 -11.61366,20.26054 z m 32.21873,-4.08483 c -10.90964,-4.96404 -17.85565,-27.2308 -9.83376,-31.52399 9.2341,-4.94194 52.08567,-18.121434 53.47536,-16.446965 1.94774,2.346885 3.83006,2.290415 3.83006,-0.114909 0,-7.136119 11.27181,-1.912721 14.31964,6.635774 8.12621,22.79222 0.6617,37.22954 -15.46524,29.91176 -8.05965,-3.65715 -10.1795,-3.3443 -14.3451,2.11708 -6.83214,8.9574 -22.71643,13.63674 -31.98096,9.42125 z m 19.13833,-13.89852 C 343.50183,128.73174 339.43873,120 333.33334,120 c -3.65998,0 -8,4.64919 -8,8.5699 0,7.06756 9.98084,10.57755 14.33334,5.04063 z m 33.74743,-8.35796 c 3.60276,-3.60276 2.91777,-8.91343 -1.58093,-12.25673 -7.78591,-5.78625 -16.10002,5.40398 -9.1665,12.3375 3.41936,3.41936 7.27629,3.39037 10.74743,-0.0808 z m -82.74743,-18.21705 c 0,-3.54801 15.07573,-17.062649 23.65165,-21.202507 10.74961,-5.189165 27.50334,-5.462458 36.01501,-0.58749 7.27469,4.166496 7.15085,4.664653 -1.6491,6.633997 -4.02368,0.900459 -17.95493,5.195937 -30.95835,9.54551 -26.05816,8.7163 -27.05921,8.92386 -27.05921,5.61049 z" />
    <path
       style="display:none;fill:#656cf9"
       d="M 308.00001,231.99819 C 268.01669,222.10069 239.8053,194.78605 229.50677,156 c -12.27181,-46.21775 8.82527,-92.685306 53.15991,-117.087799 25.66119,-14.124334 64.12883,-14.877471 91.33333,-1.788166 57.6597,27.742663 79.26343,96.646055 46.68874,148.910015 -23.09073,37.04755 -70.53425,56.39909 -112.68874,45.96414 z m 66.54804,-25.00699 c 44.55368,-22.5063 56.28601,-90.63355 22.50634,-130.689652 -42.62131,-50.540565 -125.61164,-36.79899 -147.14976,24.365122 -12.69384,36.04806 2.06833,84.5688 30.18901,99.22612 6.68338,3.48357 6.20235,3.57541 8.36348,-1.59691 2.35798,-5.64343 13.33631,-15.48244 22.78303,-20.41862 8.77057,-4.58287 9.0421,-5.7375 2.42653,-10.31854 -12.06034,-8.35133 -13.0044,-9.6239 -8.51817,-11.48216 2.81447,-1.16579 7.38077,-1.38305 15.26492,-0.72631 18.34664,1.52827 31.90022,-4.05967 36.48986,-15.04422 1.87401,-4.48514 1.87401,-4.48514 6.38633,-0.52328 2.48177,2.17903 6.40719,4.37805 8.72314,4.88672 11.5088,2.52776 -7.6342,26.61145 -26.56233,33.41791 -8.81897,3.17126 -9.38213,5.24065 -2.92928,10.76405 5.35931,4.58737 12.14553,16.27901 12.14553,20.92493 0,3.59514 10.03333,2.18958 19.88137,-2.78516 z m -86.23843,-55.39732 c -10.885,-4.881 -12.44428,-27.74068 -2.15895,-31.65116 8.4757,-3.22245 10.35685,-1.66665 13.77261,11.39062 3.83094,14.64438 -1.88816,24.6216 -11.61366,20.26054 z m 32.21873,-4.08483 c -10.90964,-4.96404 -17.85565,-27.2308 -9.83376,-31.52399 9.2341,-4.94194 52.08567,-18.121434 53.47536,-16.446965 1.94774,2.346885 3.83006,2.290415 3.83006,-0.114909 0,-7.136119 11.27181,-1.912721 14.31964,6.635774 8.12621,22.79222 0.6617,37.22954 -15.46524,29.91176 -8.05965,-3.65715 -10.1795,-3.3443 -14.3451,2.11708 -6.83214,8.9574 -22.71643,13.63674 -31.98096,9.42125 z m 19.13833,-13.89852 C 343.50183,128.73174 339.43873,120 333.33334,120 c -3.65998,0 -8,4.64919 -8,8.5699 0,7.06756 9.98084,10.57755 14.33334,5.04063 z m 33.74743,-8.35796 c 3.60276,-3.60276 2.91777,-8.91343 -1.58093,-12.25673 -7.78591,-5.78625 -16.10002,5.40398 -9.1665,12.3375 3.41936,3.41936 7.27629,3.39037 10.74743,-0.0808 z m -82.74743,-18.21705 c 0,-3.54801 15.07573,-17.062649 23.65165,-21.202507 10.74961,-5.189165 27.50334,-5.462458 36.01501,-0.58749 7.27469,4.166496 7.15085,4.664653 -1.6491,6.633997 -4.02368,0.900459 -17.95493,5.195937 -30.95835,9.54551 -26.05816,8.7163 -27.05921,8.92386 -27.05921,5.61049 z M 29.746493,172.66667 c 0.0075,-4.4 0.256401,-6.03925 0.55315,-3.64279 0.296748,2.39647 0.290625,5.99647 -0.01361,8 -0.304232,2.00354 -0.547027,0.0428 -0.539543,-4.35721 z m 0.06011,-44 c -0.0041,-6.6 0.221402,-9.4681 0.501034,-6.37357 0.279632,3.09454 0.282956,8.49454 0.0074,12.00001 -0.275569,3.50546 -0.504358,0.97356 -0.508422,-5.62644 z"
       id="path20" />
  </g>
</svg>
